<svg width="18" height="17" viewBox="0 0 18 17" fill="none" xmlns="http://www.w3.org/2000/svg">
<g id="bi:search" clip-path="url(#clip0_68_466)">
<g id="Group">
<path id="Vector" fill-rule="evenodd" clip-rule="evenodd" d="M11.6469 10.5748C11.7485 10.4822 11.869 10.4089 12.0016 10.359C12.1341 10.3091 12.2761 10.2837 12.4194 10.2843C12.5627 10.2848 12.7045 10.3112 12.8367 10.362C12.9689 10.4128 13.0889 10.4869 13.1899 10.5803L17.3744 14.4451C17.5783 14.6333 17.6924 14.8881 17.6916 15.1534C17.6907 15.4187 17.575 15.6727 17.3699 15.8596C17.1648 16.0465 16.887 16.151 16.5978 16.1501C16.3085 16.1491 16.0314 16.0429 15.8275 15.8546L11.643 11.9898C11.5419 11.8966 11.4619 11.786 11.4074 11.6644C11.353 11.5428 11.3252 11.4126 11.3257 11.2812C11.3261 11.1498 11.3549 11.0197 11.4102 10.8985C11.4655 10.7773 11.5463 10.6673 11.648 10.5748L11.6469 10.5748Z" fill="#86869E"/>
<path id="Vector_2" fill-rule="evenodd" clip-rule="evenodd" d="M7.34289 12.1176C8.13048 12.1203 8.91085 11.9808 9.63946 11.707C10.3681 11.4332 11.0307 11.0304 11.5894 10.5217C12.1481 10.0129 12.592 9.40817 12.8957 8.74195C13.1995 8.07574 13.3572 7.36109 13.3597 6.63883C13.3623 5.91656 13.2097 5.20082 12.9107 4.53246C12.6116 3.86411 12.172 3.25623 11.6169 2.74354C11.0618 2.23085 10.4021 1.82338 9.67545 1.54441C8.9488 1.26543 8.16943 1.12041 7.38185 1.11762C5.79125 1.11199 4.26375 1.68605 3.13537 2.71351C2.007 3.74097 1.37018 5.13767 1.36502 6.59635C1.35985 8.05503 1.98676 9.45621 3.10783 10.4916C4.2289 11.5271 5.7523 12.1119 7.34289 12.1176ZM14.4501 6.64269C14.444 8.36658 13.6914 10.0172 12.3579 11.2315C11.0244 12.4458 9.21915 13.1242 7.33935 13.1175C5.45956 13.1109 3.65918 12.4197 2.33428 11.196C1.00938 9.97232 0.268486 8.31639 0.27459 6.59249C0.280695 4.86859 1.0333 3.21795 2.36683 2.00367C3.70036 0.789403 5.50559 0.110971 7.38539 0.117628C9.26518 0.124285 11.0656 0.815484 12.3905 2.03917C13.7154 3.26286 14.4563 4.91879 14.4501 6.64269Z" fill="#86869E"/>
</g>
</g>
<defs>
<clipPath id="clip0_68_466">
<rect width="17.4469" height="16" fill="white" transform="translate(0.297607 0.0925293) rotate(0.202891)"/>
</clipPath>
</defs>
</svg>
