<svg width="112" height="145" viewBox="0 0 112 145" fill="none" xmlns="http://www.w3.org/2000/svg">
<g id="fa:shopping-basket" clip-path="url(#clip0_33_27)" filter="url(#filter0_d_33_27)">
<path id="Vector" d="M82.6121 40.3795C83.0262 40.381 83.3791 40.5496 83.6709 40.8855C83.9627 41.2213 84.1077 41.6259 84.106 42.0991C84.1044 42.5723 83.9564 42.9758 83.6623 43.3096C83.3681 43.6433 83.014 43.8095 82.6 43.808L82.4242 43.8074L81.0452 52.6687C80.9812 53.0791 80.8081 53.4178 80.5259 53.6847C80.2437 53.9515 79.9229 54.0843 79.5636 54.0831L64.5637 54.0299C64.2043 54.0287 63.8845 53.8936 63.6042 53.6248C63.3239 53.3559 63.1532 53.016 63.0921 52.6051L61.7759 43.7343L61.6001 43.7337C61.186 43.7322 60.8331 43.5635 60.5413 43.2277C60.2496 42.8918 60.1045 42.4873 60.1062 42.0141C60.1079 41.5409 60.2558 41.1374 60.5499 40.8036C60.8441 40.4698 61.1982 40.3037 61.6122 40.3051L82.6121 40.3795ZM65.7579 51.0342C65.9611 51.017 66.1313 50.9172 66.2687 50.7346C66.4061 50.5521 66.4674 50.3447 66.4526 50.1125L66.0973 44.5398C66.0825 44.3076 65.9953 44.1131 65.8357 43.9563C65.6761 43.7994 65.4947 43.7296 65.2915 43.7467C65.0883 43.7639 64.918 43.8637 64.7807 44.0463C64.6433 44.2288 64.582 44.4362 64.5968 44.6684L64.9521 50.2411C64.9669 50.4644 65.0463 50.6522 65.1903 50.8045C65.3343 50.9568 65.504 51.0333 65.6993 51.0339L65.7579 51.0342ZM70.5773 50.1941L70.597 44.6227C70.5978 44.3905 70.5243 44.1894 70.3765 44.0192C70.2287 43.849 70.0532 43.7636 69.8501 43.7629C69.6469 43.7622 69.4709 43.8464 69.3218 44.0155C69.1728 44.1846 69.0978 44.3852 69.097 44.6174L69.0773 50.1888C69.0765 50.4209 69.15 50.6221 69.2978 50.7922C69.4457 50.9624 69.6211 51.0478 69.8243 51.0486C70.0274 51.0493 70.2035 50.9651 70.3525 50.796C70.5015 50.6268 70.5765 50.4262 70.5773 50.1941ZM75.0773 50.21L75.097 44.6386C75.0978 44.4065 75.0243 44.2053 74.8765 44.0352C74.7286 43.865 74.5532 43.7795 74.35 43.7788C74.1469 43.7781 73.9708 43.8623 73.8218 44.0314C73.6728 44.2005 73.5978 44.4012 73.597 44.6333L73.5773 50.2047C73.5764 50.4368 73.65 50.638 73.7978 50.8082C73.9456 50.9783 74.1211 51.0638 74.3242 51.0645C74.5274 51.0652 74.7034 50.981 74.8525 50.8119C75.0015 50.6428 75.0764 50.4422 75.0773 50.21ZM79.202 50.2916L79.5967 44.7215C79.6132 44.4894 79.5534 44.2816 79.4173 44.0981C79.2812 43.9146 79.1117 43.8135 78.9086 43.795C78.7055 43.7764 78.5236 43.8449 78.3629 44.0006C78.2022 44.1563 78.1137 44.3502 78.0972 44.5823L77.7025 50.1523C77.686 50.3844 77.7458 50.5922 77.8819 50.7757C78.018 50.9593 78.1876 51.0603 78.3906 51.0789L78.4492 51.0791C78.6445 51.0798 78.8147 51.0045 78.9598 50.8532C79.1048 50.702 79.1856 50.5147 79.202 50.2916ZM65.7129 33.9446L64.6035 39.4586L63.0567 39.4531L64.2612 33.5511C64.4124 32.7659 64.7623 32.1265 65.311 31.6329C65.8596 31.1393 66.4855 30.8937 67.1886 30.8962L69.1456 30.9032C69.1464 30.671 69.2213 30.4704 69.3704 30.3013C69.5194 30.1322 69.6955 30.048 69.8986 30.0487L74.3986 30.0646C74.6017 30.0653 74.7772 30.1508 74.925 30.321C75.0729 30.4911 75.1464 30.6923 75.1456 30.9244L77.1026 30.9313C77.8057 30.9338 78.4298 31.1838 78.9749 31.6813C79.52 32.1788 79.8654 32.8206 80.0111 33.6068L81.1738 39.5172L79.6269 39.5118L78.5566 33.9901C78.472 33.5969 78.2955 33.2749 78.0268 33.0239C77.7582 32.773 77.4481 32.6469 77.0965 32.6456L75.1395 32.6387C75.1387 32.8708 75.0637 33.0715 74.9147 33.2406C74.7657 33.4097 74.5896 33.4939 74.3865 33.4932L69.8865 33.4772C69.6834 33.4765 69.5079 33.3911 69.36 33.2209C69.2122 33.0507 69.1387 32.8496 69.1395 32.6174L67.1825 32.6105C66.8309 32.6093 66.52 32.7332 66.2495 32.9822C65.9791 33.2313 65.8003 33.5521 65.7129 33.9446Z" fill="#20374F"/>
</g>
<defs>
<filter id="filter0_d_33_27" x="0.0637207" y="0.0141602" width="144.085" height="144.085" filterUnits="userSpaceOnUse" color-interpolation-filters="sRGB">
<feFlood flood-opacity="0" result="BackgroundImageFix"/>
<feColorMatrix in="SourceAlpha" type="matrix" values="0 0 0 0 0 0 0 0 0 0 0 0 0 0 0 0 0 0 127 0" result="hardAlpha"/>
<feOffset dy="30"/>
<feGaussianBlur stdDeviation="30"/>
<feColorMatrix type="matrix" values="0 0 0 0 0 0 0 0 0 0 0 0 0 0 0 0 0 0 0.2 0"/>
<feBlend mode="normal" in2="BackgroundImageFix" result="effect1_dropShadow_33_27"/>
<feBlend mode="normal" in="SourceGraphic" in2="effect1_dropShadow_33_27" result="shape"/>
</filter>
<clipPath id="clip0_33_27">
<rect width="24" height="24" fill="white" transform="translate(60.1487 30.0142) rotate(0.202891)"/>
</clipPath>
</defs>
</svg>
