<svg width="29" height="18" viewBox="0 0 29 18" fill="none" xmlns="http://www.w3.org/2000/svg">
<g id="Group 6">
<line id="Line 1" x1="9.23986" y1="4.20423" x2="26.8676" y2="4.26665" stroke="#070648" stroke-width="2" stroke-linecap="round"/>
<line id="Line 2" x1="20.2931" y1="13.2434" x2="2.66539" y2="13.181" stroke="#070648" stroke-width="2" stroke-linecap="round"/>
<path id="Ellipse 6" d="M8.83023 4.2028C8.82353 6.09592 7.13052 7.6968 4.95612 7.6891C2.78173 7.68141 1.1001 6.06857 1.1068 4.17545C1.11351 2.28233 2.80652 0.681449 4.98091 0.689148C7.15531 0.696848 8.83693 2.30968 8.83023 4.2028Z" stroke="#070648"/>
<path id="Ellipse 7" d="M20.7027 13.2448C20.7094 11.3517 22.4024 9.75083 24.5768 9.75853C26.7512 9.76623 28.4329 11.3791 28.4262 13.2722C28.4195 15.1653 26.7264 16.7662 24.552 16.7585C22.3777 16.7508 20.696 15.1379 20.7027 13.2448Z" stroke="#070648"/>
</g>
</svg>
