<svg width="23" height="12" viewBox="0 0 23 12" fill="none" xmlns="http://www.w3.org/2000/svg">
<g id="Group 4">
<g id="Group">
<path id="Vector" d="M0.0340714 1.37499C0.0353627 1.01032 0.181466 0.6611 0.44024 0.404152C0.699014 0.147204 1.04926 0.00357769 1.41393 0.00486904L20.6638 0.0730355C21.0285 0.0743269 21.3777 0.22043 21.6347 0.479204C21.8916 0.737978 22.0352 1.08823 22.0339 1.4529C22.0326 1.81757 21.8865 2.16679 21.6278 2.42374C21.369 2.68068 21.0187 2.82431 20.6541 2.82302L1.40419 2.75485C1.03952 2.75356 0.690302 2.60746 0.433354 2.34868C0.176407 2.08991 0.03278 1.73966 0.0340714 1.37499Z" fill="#070648"/>
<path id="Vector_2" d="M1.38476 8.25487C1.02009 8.25358 0.669839 8.3972 0.411065 8.65415C0.152291 8.9111 0.00618794 9.26032 0.00489659 9.62499C0.00360524 9.98966 0.147232 10.3399 0.40418 10.5987C0.661127 10.8575 1.01035 11.0036 1.37502 11.0049L12.3749 11.0438C12.7396 11.0451 13.0899 10.9015 13.3486 10.6445C13.6074 10.3876 13.7535 10.0384 13.7548 9.67368C13.7561 9.30901 13.6125 8.95876 13.3555 8.69999C13.0986 8.44122 12.7494 8.29511 12.3847 8.29382L1.38476 8.25487Z" fill="#070648"/>
</g>
</g>
</svg>
